<svg xmlns="http://www.w3.org/2000/svg" viewBox="0 0 32 32"><defs><style>.cls-1,.cls-5{fill:none;}.cls-2{fill:#fff;}.cls-3{fill:#3fa9f5;}.cls-4{opacity:0.3;}.cls-5{stroke:#000;stroke-miterlimit:10;}.cls-6{opacity:0.2;}.cls-7{fill:#34b600;}</style></defs><title>ribbon_add_new_item</title><g id="Layer_2" data-name="Layer 2"><g id="Layer_1-2" data-name="Layer 1"><rect class="cls-1" width="32" height="32"/><rect class="cls-2" x="4" y="3" width="24" height="24" rx="3"/><path class="cls-3" d="M28,8H4V6A3,3,0,0,1,7,3H25a3,3,0,0,1,3,3Z"/><g class="cls-4"><rect class="cls-5" x="4.5" y="3.5" width="23" height="23" rx="2.5"/></g><g class="cls-6"><path class="cls-7" d="M25,26H7a2,2,0,0,1-2-2V17H27v7A2,2,0,0,1,25,26Z"/></g><polygon class="cls-7" points="25 20 23 20 23 18 21 18 21 20 19 20 19 22 21 22 21 24 23 24 23 22 25 22 25 20"/><g class="cls-4"><rect x="5" y="16" width="22" height="1"/></g></g></g></svg>