<svg width="50" height="26" viewBox="0 0 50 26" fill="none" xmlns="http://www.w3.org/2000/svg">
    <path opacity="0.3" d="M1 25V7C1 3.68629 3.68629 1 7 1V1C10.3137 1 13 3.68629 13 7V19C13 22.3137 15.6863 25 19 25V25C22.3137 25 25 22.3137 25 19V7C25 3.68629 27.6863 1 31 1V1C34.3137 1 37 3.68629 37 7V19C37 22.3137 39.6863 25 43 25V25C46.3137 25 49 22.3137 49 19V1" stroke="white" stroke-width="2" stroke-linecap="round" stroke-linejoin="round" stroke-dasharray="100 4 4 4" stroke-dashoffset="0">
    <animate attributeName="stroke-dashoffset" from="112" to="0" dur="2s" repeatCount="indefinite" />
    </path>
</svg>
