<svg xmlns="http://www.w3.org/2000/svg" xmlns:xlink="http://www.w3.org/1999/xlink" viewBox="0 0 32 32"><defs><style>.cls-1{fill:#fff;}.cls-2,.cls-6{fill:none;}.cls-3{mask:url(#mask);}.cls-4{fill:#bdccd4;}.cls-5{opacity:0.3;}.cls-6{stroke:#000;stroke-miterlimit:10;}.cls-7{fill:#949fa6;}.cls-8{fill:#34b600;}.cls-9{filter:url(#luminosity-noclip);}</style><filter id="luminosity-noclip" x="4" y="3" width="29" height="29" filterUnits="userSpaceOnUse" color-interpolation-filters="sRGB"><feFlood flood-color="#fff" result="bg"/><feBlend in="SourceGraphic" in2="bg"/></filter><mask id="mask" x="4" y="3" width="29" height="29" maskUnits="userSpaceOnUse"><g class="cls-9"><polygon class="cls-1" points="32 24 28 24 28 20 25 20 25 24 21 24 21 27 25 27 25 31 28 31 28 27 32 27 32 24"/><path d="M28,20v4h4v3H28v4H25V27H21V24h4V20h3m1-1H24v4H20v5h4v4h5V28h4V23H29V19Z"/></g></mask></defs><title>ribbon_add_mh_data_source</title><g id="Layer_2" data-name="Layer 2"><g id="Layer_1-2" data-name="Layer 1"><rect class="cls-2" width="32" height="32"/><g class="cls-3"><rect class="cls-1" x="4" y="3" width="24" height="24" rx="3"/><path class="cls-4" d="M28,8H4V6A3,3,0,0,1,7,3H25a3,3,0,0,1,3,3Z"/><g class="cls-5"><rect class="cls-6" x="4.5" y="3.5" width="23" height="23" rx="2.5"/></g><path class="cls-4" d="M15,22.5c-2.57,0-4.5-1.07-4.5-2.5V12.5c0-1.31,2.26-2,4.5-2s4.5.69,4.5,2V20C19.5,21.43,17.57,22.5,15,22.5Z"/><path class="cls-7" d="M15,11c2.21,0,4,.67,4,1.5V20c0,1.1-1.79,2-4,2s-4-.9-4-2V12.5c0-.83,1.79-1.5,4-1.5m0-1c-2.49,0-5,.77-5,2.5V20c0,1.71,2.15,3,5,3s5-1.29,5-3V12.5c0-1.73-2.51-2.5-5-2.5Z"/><ellipse class="cls-1" cx="15" cy="12.5" rx="4" ry="1.5"/><rect class="cls-8" x="17" y="13" width="6" height="3"/><polygon class="cls-8" points="22 11 22 18 25 14.5 22 11"/></g><polygon class="cls-8" points="32 24 28 24 28 20 25 20 25 24 21 24 21 27 25 27 25 31 28 31 28 27 32 27 32 24"/></g></g></svg>