<svg viewBox="0 0 32 32" xmlns="http://www.w3.org/2000/svg"><path d="m0 0h32v32h-32z" fill="none"/><circle cx="7.75" cy="22.75" fill="#c9c9c9" r="2.75"/><circle cx="8.25" cy="22.75" fill="#fff" r="2.25"/><circle cx="9.78" cy="21.63" fill="#c9c9c9" r="1.78"/><circle cx="9.97" cy="22.22" fill="#fff" r="1.78"/><circle cx="10.25" cy="25.25" fill="#c9c9c9" r="2.25"/><circle cx="10.5" cy="28" fill="#c9c9c9" r="3"/><circle cx="9.75" cy="27.5" fill="#fff" r="2.5"/><circle cx="10" cy="24.5" fill="#fff" r="2"/><circle cx="4.63" cy="27.63" fill="#c9c9c9" r="4.38"/><circle cx="5.32" cy="26.93" fill="#fff" r="3.68"/><path d="m14 22.61c-1.93 1.93-2.76 2.06-5.75 2.92.86-3 1-3.82 2.92-5.75l2.38.45z" fill="#ff363d"/><path d="m13.94 21.93c-1.29 1.29-1.87 1.35-4 1.84.49-2.09.55-2.67 1.84-4l1.7.42z" fill="#ffe56b"/><g fill="none" stroke="#0075bd" stroke-miterlimit="3" stroke-width="2"><path d="m22.5 17.5.5 6-5.19 3.15-1.33-1.42 2.77-7.41z"/><path d="m16.43 11.48-6.43-.48-2.9 4.94 1.42 1.33 7.41-2.77z"/><path d="m13.74 23.28-1.63-1.64-1.64-1.64c1.42-7.07 12-17 19.31-16 .93 7.26-8.97 17.86-16.04 19.28z"/><path d="m29.78 4c-4.24 10.58-13.78 16.58-16.97 18.35l.93.93c7.07-1.42 16.96-12.02 16.04-19.28z"/><path d="m24.83 11.74a2 2 0 1 1 0-2.82 2 2 0 0 1 0 2.82z"/></g><path d="m22.5 17.5.5 6-5.19 3.15-1.33-1.42 2.77-7.41z" fill="#5eb7f7"/><path d="m16.43 11.48-6.43-.48-2.9 4.94 1.42 1.33 7.41-2.77z" fill="#5eb7f7"/><path d="m13.74 23.28-1.63-1.64-1.64-1.64c1.42-7.07 12-17 19.31-16 .93 7.26-8.97 17.86-16.04 19.28z" fill="#7ec5f8"/><path d="m29.78 4c-4.24 10.58-13.78 16.58-16.97 18.35l.93.93c7.07-1.42 16.96-12.02 16.04-19.28z" fill="#3fa9f5"/><path d="m24.83 11.74a2 2 0 1 1 0-2.82 2 2 0 0 1 0 2.82z" fill="#fff"/></svg>