<svg viewBox="0 0 32 32" xmlns="http://www.w3.org/2000/svg" xmlns:xlink="http://www.w3.org/1999/xlink"><defs><path id="a" d="m6.05200195 18.0586523 1.15686035-5.3843994h1.13305665l.23327636-1.1092529h-1.10925293l.11425782-.5379639c.06030273-.2634277.15075683-.4570312.2713623-.5808105s.2935791-.185669.5189209-.185669c.1015625 0 .20550537.0134888.31182861.0404663.10632324.0269776.20391846.0579224.29278565.0928345l.23327636-1.15686033c-.10791015-.03491211-.24359131-.06506348-.40704345-.0904541-.16345215-.02539063-.32611084-.03808594-.48797608-.03808594-.62207031 0-1.11480713.14440918-1.47821045.43322754s-.61175537.72998043-.74505615 1.32348633l-.15710449.6998291h-.81884766l-.24279785 1.1092529h.82836914l-1.15209961 5.3843994zm4.81311035-.1190185c-.1174316-.2062988-.2182007-.4260864-.3023071-.6593628-.0841065-.2332764-.1531372-.4729004-.2070923-.7188721s-.0944214-.4927368-.1213989-.7402954c-.0269776-.2475586-.0404663-.4903564-.0404663-.7283935 0-.5522461.0603027-1.0751343.1809082-1.5686646.1206054-.4935303.2911987-.9648437.5117797-1.4139404.2205811-.4490967.4855957-.8799439.795044-1.2925415.3094482-.4125977.6514282-.8140869 1.0259399-1.2044678h-1.2949218c-.3935547.35229493-.7458497.7276001-1.0568848 1.1259155-.3110352.3983155-.5744629.8204346-.79028321 1.2663575-.21582031.4459228-.38085938.913269-.49511719 1.4020385-.11425781.4887696-.17138672.9997559-.17138672 1.532959 0 .2412109.0166626.4943237.04998779.7593384.0333252.2650146.08331299.5284424.14996338.7902832s.14996338.517334.24993897.7664795c.09997558.2491455.21661377.4768677.34991455.6831665zm2.1756592-1.4996338.9664306-1.2949219c.0507813-.0634765.0999756-.1364746.1475831-.2189941.0476074-.0825195.0952148-.1634522.1428222-.2427979h.0238037c.019043.0793457.0396729.1610718.0618897.2451783.0222168.0841064.0460205.1626586.0714111.2356567l.4379883 1.2758789h1.6710205l-1.0854492-2.4470215 2.1280517-2.4279785h-1.7091064l-.9521484 1.3044434c-.0507813.0698242-.1079102.1515503-.1713868.2451782-.0634765.0936279-.1142578.175354-.1523437.2451782h-.019043c-.0095215-.0634766-.0253906-.1436157-.0476074-.2404175-.0222168-.0968017-.0491943-.1864624-.0809326-.2689819l-.3999024-1.2854004h-1.6757812l1.0426025 2.4089355-2.1708984 2.4660645zm4.4179687 1.4996338c.3903809-.3522949.7410889-.7276001 1.0521241-1.1259155.3110351-.3983155.5752563-.8196412.7926635-1.2639771.2174073-.4443359.3832398-.9108887.4974976-1.3996582s.1713867-.9997559.1713867-1.532959c0-.2412109-.0166626-.4943237-.0499878-.7593384-.0333252-.2650146-.083313-.5292358-.1499634-.7926635-.0666504-.2634278-.1499633-.5197144-.2499389-.7688599s-.2166138-.47686767-.3499146-.6831665h-1.1711426c.1174317.20947266.2189942.4316406.3046875.6665039.0856934.2348633.1555176.4752808.2094727.7212525.0539551.2459716.0944214.4927368.1213989.7402954.0269776.2475586.0404663.4903564.0404663.7283935 0 .5522461-.0603027 1.0751343-.1809082 1.5686646-.1206054.4935302-.2919922.9648437-.5141601 1.4139404-.222168.4490967-.4879761.8791504-.7974243 1.2901611-.3094483.4110108-.6514283.8101197-1.02594 1.1973267z"/></defs><g fill="none" fill-rule="evenodd"><path d="m0 0h32v32h-32z"/><g transform="translate(3 3)"><rect fill="#fff" fill-rule="nonzero" height="24" rx="3" width="24"/><path d="m24 5h-24v-2c0-1.65685425 1.34314575-3 3-3h18c1.6568542 0 3 1.34314575 3 3z" fill="#3fa9f5" fill-rule="nonzero"/><g fill-rule="nonzero"><use fill="#000" xlink:href="#a"/><use fill="#06c" xlink:href="#a"/></g><rect height="23" opacity=".3" rx="2.5" stroke="#000" width="23" x=".5" y=".5"/><g fill="#fff"><path d="m23 11h1v2h-1z" fill-rule="nonzero"/><path d="m11 23h3v1h-3z" fill-rule="nonzero"/><path d="m24 11-13 13h4l9-9z" fill-rule="nonzero"/></g></g><g fill-rule="nonzero"><path d="m15.82 26.73.68-.68 2.95 2.95-.66.66-5.07 1.69z" fill="#fff9b8"/><path d="m16.5 26.6 2.4 2.4-.32.32-4.13 1.38 1.7-3.7.35-.35zm0-1.05-1 1-2.5 5.45 6-2 1-1-3.5-3.5z" fill="#f2df83"/><path d="m16 31-3 1 1.25-2.75z" fill="#85898c"/><path d="m14.976894 20.278536h15.56v4.95h-15.56z" fill="#ffd733" transform="matrix(.70710678 -.70710678 .70710678 .70710678 -9.42384 22.75591)"/><path d="m26.5 16.5 2.5 2.5-10 10-2.5-2.5zm0-1-11 11 3.5 3.5 11-11z" fill="#f2b93f"/><path d="m28.17 19.65c-.4408531.0048391-.8641663-.1724459-1.17-.49l-.67-.67c-.3108426-.3079838-.4857145-.727419-.4857145-1.165s.1748719-.8570162.4857145-1.165l1.67-1.67c.3078432-.3146069.7298374-.4913395 1.17-.4900076.437844.0004445.8580034.1728176 1.17.4800076l.67.67c.6420669.6439682.6420669 1.6860318 0 2.33l-1.67 1.67c-.3061608.3182848-.7283689.4987156-1.17.5z" fill="#ffcdd4"/><path d="m29.17 14.36c.344505.001757.674672.1381303.92.38l.67.67c.5020558.5066967.5020558 1.3233033 0 1.83l-1.67 1.67c-.2428389.2456018-.5746248.3826438-.92.38-.3425919.0033955-.6715612-.1339763-.91-.38l-.67-.67c-.2436593-.2421485-.3806733-.5714804-.3806733-.915s.137014-.6728515.3806733-.915l1.67-1.67c.2416526-.2412672.5685313-.377766.91-.38zm0-.7000335c-.528145-.000388-1.0350171.2081126-1.41.5800335l-1.67 1.67c-.3755541.3751365-.5865733.8841815-.5865733 1.415s.2110192 1.0398635.5865733 1.415l.67.67c.3733503.3755878.8804232.5877672 1.41.5900006.5330446.0004218 1.0442036-.2119612 1.42-.5900006l1.67-1.67c.3755541-.3751365.5865733-.8841815.5865733-1.415s-.2110192-1.0398635-.5865733-1.415l-.67-.67c-.3774377-.374373-.888394-.5830735-1.42-.5800335z" fill="#f09bab"/><path d="m25.483359 16.126039h3.54v4.24h-3.54z" fill="#bdccd4" transform="matrix(.70710678 -.70710678 .70710678 .70710678 -4.919574 24.615176)"/><path d="m27 16 2.5 2.5-2 2-2.5-2.5zm0-1-3 3 3.5 3.5 3-3z" fill="#9fb0b8"/><path d="m16 31-1.75-1.75" fill="#85898c"/></g></g></svg>