<svg viewBox="0 0 32 32" xmlns="http://www.w3.org/2000/svg" xmlns:xlink="http://www.w3.org/1999/xlink"><filter id="a" color-interpolation-filters="sRGB" filterUnits="userSpaceOnUse" height="30" width="25" x="3" y="3"><feFlood flood-color="#fff" result="bg"/><feBlend in="SourceGraphic" in2="bg"/></filter><mask id="b" height="30" maskUnits="userSpaceOnUse" width="25" x="3" y="3"><path d="m28 16h-2l-10.5 10.5v6.5h12.5z" filter="url(#a)"/></mask><path d="m0 0h32v32h-32z" fill="none"/><g mask="url(#b)"><rect fill="#fff" height="24" rx="3" width="24" x="3" y="3"/><path d="m27 8h-24v-2a3 3 0 0 1 3-3h18a3 3 0 0 1 3 3z" fill="#3fa9f5"/><text style="font-size:9.75;fill:#06c;font-family:SegoeUI-SemiboldItalic, Segoe UI;font-weight:700;font-style:italic;letter-spacing:.04em" transform="translate(7.5 19.44)">f(x)</text><rect fill="none" height="23" opacity=".3" rx="2.5" stroke="#000" stroke-miterlimit="10" width="23" x="3.5" y="3.5"/><g fill="#fff"><path d="m26 14h1v2h-1z"/><path d="m14 26h3v1h-3z"/><path d="m27 14-13 13h4l9-9z"/></g></g><path d="m15.82 26.73.68-.68 2.95 2.95-.66.66-5.07 1.69z" fill="#fff9b8"/><path d="m16.5 26.6 2.4 2.4-.32.32-4.13 1.38 1.7-3.7.35-.35m0-1.1-1 1-2.5 5.45 6-2 1-1-3.5-3.5z" fill="#f2df83"/><path d="m16 31-3 1 1.25-2.75z" fill="#85898c"/><path d="m14.97 20.28h15.56v4.95h-15.56z" fill="#ffd733" transform="matrix(.70710678 -.70710678 .70710678 .70710678 -9.42 22.75)"/><path d="m26.5 16.5 2.5 2.5-10 10-2.5-2.5zm0-1-11 11 3.5 3.5 11-11z" fill="#f2b93f"/><path d="m28.17 19.65a1.6 1.6 0 0 1 -1.17-.49l-.67-.67a1.64 1.64 0 0 1 0-2.33l1.67-1.67a1.63 1.63 0 0 1 1.17-.49 1.67 1.67 0 0 1 1.17.48l.67.67a1.65 1.65 0 0 1 0 2.33l-1.67 1.67a1.63 1.63 0 0 1 -1.17.5z" fill="#ffcdd4"/><path d="m29.17 14.36a1.32 1.32 0 0 1 .92.38l.67.67a1.3 1.3 0 0 1 0 1.83l-1.67 1.67a1.28 1.28 0 0 1 -.92.38 1.25 1.25 0 0 1 -.91-.38l-.67-.67a1.29 1.29 0 0 1 0-1.83l1.67-1.67a1.3 1.3 0 0 1 .91-.38m0-.7a2 2 0 0 0 -1.41.58l-1.67 1.67a2 2 0 0 0 0 2.83l.67.67a2 2 0 0 0 1.41.59 2 2 0 0 0 1.42-.59l1.67-1.67a2 2 0 0 0 0-2.83l-.67-.67a2 2 0 0 0 -1.42-.58z" fill="#f09bab"/><path d="m25.48 16.13h3.54v4.24h-3.54z" fill="#bdccd4" transform="matrix(.70710678 -.70710678 .70710678 .70710678 -4.92 24.61)"/><path d="m27 16 2.5 2.5-2 2-2.5-2.5zm0-1-3 3 3.5 3.5 3-3z" fill="#9fb0b8"/><path d="m16 31-1.75-1.75" fill="#85898c"/></svg>