<svg viewBox="0 0 32 32" xmlns="http://www.w3.org/2000/svg"><circle cx="15.5" cy="15.5" fill="#fff" r="13.5"/><circle cx="15.5" cy="15.5" fill="none" opacity=".3" r="13" stroke="#000" stroke-miterlimit="10"/><path d="m19 6.34h3v1h-3z" opacity=".11" transform="matrix(.5 -.8660254 .8660254 .5 4.33 21.17)"/><path d="m22.66 10h3v1h-3z" opacity=".11" transform="matrix(.87 -.5 .5 .87 -2.01 13.49)"/><path d="m24 15h3v1h-3z" opacity=".11"/><path d="m23.66 19h1v3h-1z" opacity=".11" transform="matrix(.5 -.8660254 .8660254 .5 -5.67 31.17)"/><path d="m20 22.66h1v3h-1z" opacity=".11" transform="matrix(.87 -.5 .5 .87 -9.33 13.49)"/><path d="m15 24h1v3h-1z" opacity=".11"/><path d="m9 23.66h3v1h-3z" opacity=".11" transform="matrix(.5 -.8660254 .8660254 .5 -15.67 21.17)"/><path d="m5.34 20h3v1h-3z" opacity=".11" transform="matrix(.87 -.5 .5 .87 -9.33 6.17)"/><path d="m4 15h3v1h-3z" opacity=".11"/><path d="m6.34 9h1v3h-1z" opacity=".11" transform="matrix(.5 -.8660254 .8660254 .5 -5.67 11.17)"/><path d="m10 5.34h1v3h-1z" opacity=".11" transform="matrix(.87 -.5 .5 .87 -2.01 6.17)"/><path d="m15 4h1v3h-1z" opacity=".11"/><g opacity=".18"><path d="m14.51 14.51 4.95-2.97-2.97 4.95z"/><path d="m16.49 14.51 2.97 4.95-4.95-2.97z"/><path d="m16.49 16.49-4.95 2.97 2.97-4.95z"/><path d="m14.51 16.49-2.97-4.95 4.95 2.97z"/><path d="m15.5 13.5 8 2-8 2z"/><path d="m17.5 15.5-2 8-2-8z"/><path d="m15.5 17.5-8-2 8-2z"/><path d="m13.5 15.5 2-8 2 8z"/></g><path d="m14.09 14.09-5.31 8.13 8.13-5.31z" fill="#0096ff"/><path d="m14.09 14.09 8.13-5.31-5.31 8.13z" fill="#ff363d"/><path d="m0 0h32v32h-32z" fill="none"/></svg>