<svg viewBox="0 0 600 600" xmlns="http://www.w3.org/2000/svg"><path d="m0 0h600v600h-600z" fill="#2d2921"/><g fill="#fff"><path d="m459 275.58c3.47.48 10.88-2.51 13.75-11.84 2.15-7.05.72-10.4-3.47-12.2-3.11-1.31-12.79.6-15.54 11.13-1.74 6.93.01 12.19 5.26 12.91z"/><path d="m539.73 312.77c-4.78 10.17-7.89 16.27-12.2 21.53.24-17.7 6.7-27.15 7.06-45.68-2.39-1.68-7.89-3.11-12.68-3.83a82.12 82.12 0 0 0 -25.51 32.15c1.07-10.13 2.68-20.79 4.94-28.8-5.26-.48-13.15-1.08-18.65-1.68-1.36 5.18-3.1 18.85-3.37 32.81a128.86 128.86 0 0 1 -15.17 20.89c-1.08-12.2-2.51-32.65 2.51-52-5.62-.48-13.87-1.32-19.49-1.92a153.09 153.09 0 0 0 -1.75 27.37c-4.45 9.21-11.35 20.12-15.95 25.25-2.76-7.79-5.19-20.15-5.66-34.19a191.73 191.73 0 0 0 22.76-37.8c11.72-26.55-2.39-39-13-42.09-20.24 9.23-33.23 52.66-28.06 90-2.48 5.77-6 12.36-10.57 17.11-2.15-5.86-2.27-16.51-1.44-34.09-2.75 1.44-12.19 4.91-18.17 7.54-2.39 13.51-10.65 22.84-16 27.5-3.71-9-6-42.93 26.79-40.42l2-9.92c-32.44-8.61-45 5.73-47.76 23.93-1.89.32-3.81.54-5.71.67-.36-21.8-29.16-17.14-29-6.43.05 5.19 5.69 9.4 13.69 11.61-2.19 9.92-6.91 21.77-9.51 26.06-7.41-16.39-8.57-35.65-6.49-53 20.12-3.19 30.71-16.66 31.85-31.46 1.31-17.23-10.29-30.5-21.17-31.93-17.37 15.31-26.09 36.12-29.17 56.64-56.37-7-119.36-53.46-166.12-58.92-31-3.58-64.34 14.83-64.1 46.76.21 22.21 13.34 35.34 32.91 35.85 1.51 19.84 5.25 39.07 1.18 47.39 9-.7 23.66-13.3 35.34-25.65 1 10.35 4.08 20 8 25.88a22.14 22.14 0 0 0 8.49-2 65.42 65.42 0 0 0 19.72-25.5c1.19 11.5 3.93 21.38 7.66 26.58a19.09 19.09 0 0 0 6.7-1.08c6.48-4 12.93-14.53 17.66-23.78a114.81 114.81 0 0 0 4 25.69 64.32 64.32 0 0 0 17.71-4.15c-2.35-10.72-4-30.08-3.11-46.88 5.53-.14 10.5-.34 13.52-.6-1.56 6.34-5.74 39 9.09 51.66 1.55 0 6.09-.95 7.65-1.91 6.11-5.58 12.47-18.88 17.17-32.41.07 13.92 1.65 27.45 4 34.21 6.45-1 13.51-2.64 17.82-4.79-2.64-10.64-4.55-35.16-1.92-52.14-4.42-.72-12-1.55-18.06-2.39-1.43 8.18-11.52 33.23-18.67 42.34-2.59-9.62-1.05-28.85 6.72-44.61-7.7.86-22.72 1.68-36.63 2.19a71.61 71.61 0 0 1 2.42-12.48l-17.85-4.85c-.92 2.81-2.13 9.37-3 17.85-3.48 0-6.43 0-8.58 0-.35 3.59-.59 5.14-.71 8.25h8.58c-.21 3.11-.37 6.37-.45 9.72-2.57 6.92-7.09 16.87-12.68 22.91-2.15-6-2.27-16.63-1.43-33.85-2.75 1.32-12.2 4.79-18.3 7.54-2.39 13.51-10.64 22.84-15.9 27.5-3.83-9-5-41.37 26.78-40.42l2-9.92c-35.46-11.14-47.67 9.14-48.76 31.15-4.6 5.11-9 9.94-13.19 13.09-1-7-2.39-17.85-3-28.8 9.67-5 17.34-13.95 19.74-23.58 4-15.78-8.61-25.95-24-25.71-13.96 8.27-16.77 25.59-16.25 43.81-7.84-2.84-11.6-10-12.06-19.59-1.07-25.83 23.8-40.06 51.54-35.64 41.42 6.57 105.73 43.51 157.52 48.28-2.57 28.41 5.15 55 15.05 64.25 2.27 0 9.81-1.07 11.84-1.91 7.66-5.79 20-19.91 23.06-34a55.6 55.6 0 0 0 5.85-.49c-.3 13.88 4.06 28.55 9.12 36.39a21.33 21.33 0 0 0 8.37-1.91c4.5-3.67 12.31-10.53 18.62-25.3 1.2 11.41 4 21.21 7.69 26.38a20 20 0 0 0 6.7-1.08c6.62-4.1 12.81-14 17.24-22.49a75.82 75.82 0 0 0 10.38 24.4c4.31.48 9.69-.71 11.48-1.91 3.74-3 10.89-12.64 17-23.19a76.63 76.63 0 0 0 7.63 25.1c3.58.36 9.68-.59 11.6-1.91 3.09-2.69 8.7-9.79 13.84-17.85.36 8 1.4 15.33 3.5 20.36 4.42-.12 8-.6 11.95-2.51 0-23.44 10.53-38.27 21.77-49.87-1.32 12.92-9.45 34.32-1.91 51.67a29.45 29.45 0 0 0 10.28-1.8c6.34-5.26 14.47-18.53 20.33-32.89zm-424.54-53c5.38 3 6.1 8.49 4.55 13.63a30.75 30.75 0 0 1 -12.48 16.41c-.13-13.64 1.61-26.1 7.93-30.01zm207.13-22.25c2.15 1.32 4.42 6.46 4.54 13.63.26 15.83-11.9 23.69-22.48 26.72 3.62-20.34 11.46-36.74 17.94-40.32zm-9.09 62.67a3.2 3.2 0 0 1 3.47-3.19c3.3 0 4.13 3.79 3.6 9.12-4.25-1.12-7.07-3.12-7.07-5.9zm126.77-59.65c7.25 11.27-4.76 34-16.1 51.83.96-17.68 5.39-36.59 16.1-51.83z"/></g></svg>