<svg height="16" viewBox="0 0 100 100" width="16" xmlns="http://www.w3.org/2000/svg"><path d="m99.001 19.428c-3.606 1.608-7.48 2.695-11.547 3.184 4.15-2.503 7.338-6.466 8.841-11.189-3.885 2.318-8.187 4-12.768 4.908-3.667-3.931-8.893-6.387-14.676-6.387-11.104 0-20.107 9.054-20.107 20.223 0 1.585.177 3.128.52 4.609-16.71-.845-31.525-8.895-41.442-21.131-1.73 2.988-2.722 6.462-2.722 10.168 0 7.017 3.55 13.208 8.945 16.834-3.296-.104-6.397-1.014-9.106-2.529-.002.085-.002.17-.002.255 0 9.799 6.931 17.972 16.129 19.831-1.688.463-3.463.71-5.297.71-1.296 0-2.555-.127-3.783-.363 2.559 8.034 9.984 13.882 18.782 14.045-6.881 5.424-15.551 8.657-24.971 8.657-1.623 0-3.223-.096-4.796-.282 8.898 5.738 19.467 9.087 30.82 9.087 36.982 0 57.206-30.817 57.206-57.543 0-.877-.02-1.748-.059-2.617 3.928-2.853 7.337-6.416 10.033-10.47z" fill="#fff"/></svg>