<svg preserveAspectRatio="none" width="1102" height="451" viewBox="0 0 1102 451" fill="none" xmlns="http://www.w3.org/2000/svg">
    <path opacity="0.5" d="M0 1C212.578 1 649.767 289 1103 289" stroke="#4D9D10" stroke-width="2"/>
    <path opacity="0.5" d="M0 33C212.578 33 649.767 417 1103 417" stroke="#E37C00" stroke-width="2"/>
    <path opacity="0.5" d="M0 97C212.578 97 649.767 384 1103 384" stroke="#4D9D10" stroke-width="2"/>
    <path opacity="0.5" d="M0 130C212.578 130 649.767 0.999997 1103 0.999997" stroke="#E37C00" stroke-width="2"/>
    <path opacity="0.5" d="M0 161C212.578 161 649.767 162 1103 162" stroke="#E37C00" stroke-width="2"/>
    <path opacity="0.5" d="M0 225C212.578 225 649.767 226 1103 226" stroke="#E37C00" stroke-width="2"/>
    <path opacity="0.5" d="M0 257C212.578 257 649.767 258 1103 258" stroke="#4D9D10" stroke-width="2"/>
    <path opacity="0.5" d="M0 290C212.578 290 649.767 65 1103 65" stroke="#E37C00" stroke-width="2"/>
    <path opacity="0.5" d="M0 321C212.578 321 649.767 162 1103 162" stroke="#E37C00" stroke-width="2"/>
    <path opacity="0.5" d="M0 353C212.578 353 649.767 449 1103 449" stroke="#FF363D" stroke-width="2"/>
    <path opacity="0.5" d="M0 353C212.578 353 649.767 97 1103 97" stroke="#FF363D" stroke-width="2"/>
    <path opacity="0.5" d="M0 417C212.578 417 649.767 225 1103 225" stroke="#E37C00" stroke-width="2"/>
    <path opacity="0.5" d="M0 449C212.578 449 649.767 97 1103 97" stroke="#E37C00" stroke-width="2"/>
</svg>
