<svg width="1102" height="418" viewBox="0 0 1102 418" fill="none" xmlns="http://www.w3.org/2000/svg">
<path opacity="0.5" d="M0 126C212.578 126 649.767 417 1103 417" stroke="#E37C00" stroke-width="2"/>
<path opacity="0.5" d="M0 323C212.578 323 649.767 49 1103 49" stroke="#E37C00" stroke-width="2"/>
<path opacity="0.5" d="M0 102C212.578 102 649.767 252 1103 252" stroke="#4D9D10" stroke-width="2"/>
<path opacity="0.5" d="M0 17C212.578 17 649.767 90 1103 90" stroke="#4D9D10" stroke-width="2"/>
<path opacity="0.5" d="M0 149C212.578 149 649.767 299 1103 299" stroke="#E37C00" stroke-width="2"/>
<path opacity="0.5" d="M0 252.167C212.578 252.167 649.767 1 1103 1M0 275C212.578 275 649.767 23.8333 1103 23.8333" stroke="#E37C00" stroke-width="2"/>
<path opacity="0.5" d="M0 229C212.578 229 649.767 137 1103 137" stroke="#E37C00" stroke-width="2"/>
<path opacity="0.5" d="M0 417C212.578 417 649.767 223 1103 223" stroke="#FF363D" stroke-width="2"/>
<path opacity="0.5" d="M0 49C212.578 49 649.767 323 1103 323" stroke="#FF363D" stroke-width="2"/>
</svg>
